<?xml version="1.0" encoding="utf-8"?>
<!-- Generator: Adobe Illustrator 22.0.1, SVG Export Plug-In . SVG Version: 6.00 Build 0)  -->
<svg version="1.1" xmlns="http://www.w3.org/2000/svg" xmlns:xlink="http://www.w3.org/1999/xlink" x="0px" y="0px"
	 viewBox="0 0 60 60" style="enable-background:new 0 0 60 60;" xml:space="preserve">
<style type="text/css">
	.st0{fill:none;stroke:#000000;stroke-width:1.2262;stroke-miterlimit:10;}
	.st1{fill:none;stroke:#000000;stroke-width:2.4524;stroke-miterlimit:10;}
	.st2{fill:none;stroke:#000000;stroke-width:1.2577;stroke-miterlimit:10;}
</style>
<g id="Layer_1">
	<path class="st0" d="M37.9,20.7c0,7.9-6.8,14.3-15.1,14.3c-8.5,0-15.4-7.6-15.1-14.3c0.2-5.4,5.1-9.3,6.7-10.6
		c1.7-1.3,4.5-3.6,8.3-3.8C29.4,6,37.9,11.8,37.9,20.7z"/>
	<line class="st1" x1="12.2" y1="7.8" x2="14.5" y2="10.1"/>
	<line class="st1" x1="33" y1="31.3" x2="53.9" y2="52.2"/>
</g>
<g id="Layer_2">
	<path class="st2" d="M13.3,31.3c0.9-7.2,5.4-3.9,6.1-2.5c0.7,1.4,4.5,0.7,3.3-2s-3.6-1.8-2.4-4.4c1.2-2.7,3.3-0.9,3.3-0.9
		s0.2,1.3,1.7,1.9s3.3-1.4,3-2.4c-0.3-1.1-0.4-2.1-1.9-2.2c-1.4-0.1-0.9-3-0.9-3s1.2-2.8,3.8-0.8s3.8,1.9,4.4,1.2c0.6-0.7,1-2,0-2.4
		c-1-0.5-1.5-0.5-2.3-1.9c-0.8-1.4,0.3-2.8,0.3-2.8"/>
	<circle cx="15" cy="10.6" r="1.7"/>
</g>
</svg>
